<svg xmlns="http://www.w3.org/2000/svg" width="2240" height="820" viewBox="0 0 2240 820"><rect width="2240" height="820" fill="white"/><line x1="48" y1="430" x2="2178" y2="430" stroke="#222" stroke-width="3"/><polygon points="2178,420 2202,430 2178,440" fill="#222"/><line x1="120" y1="118" x2="120" y2="421" stroke="#999" stroke-width="1.5" stroke-dasharray="2,5"/><line x1="120" y1="439" x2="120" y2="566" stroke="#999" stroke-width="1.5" stroke-dasharray="2,5"/><circle cx="120" cy="430" r="8" fill="#222"/><rect x="35" y="48" width="170" height="64" rx="4" fill="#f2f2f2" stroke="#222" stroke-width="1.5"/><text x="120" y="89" text-anchor="middle" font-family="Georgia, 'Times New Roman', serif" font-size="26" font-weight="700" fill="#111">1995</text><rect x="-6" y="568" width="252" height="234" rx="4" fill="white" stroke="#222" stroke-width="1.5"/><foreignObject x="-6" y="568" width="252" height="234"><div xmlns="http://www.w3.org/1999/xhtml" style="height:234px;display:flex;align-items:center;justify-content:center;text-align:center;padding:0 18px;box-sizing:border-box;font-family:Georgia, 'Times New Roman', serif;font-size:20px;line-height:1.42;color:#111;">AOHell: earliest recorded use of the term “phishing”</div></foreignObject><line x1="405.7142857142857" y1="118" x2="405.7142857142857" y2="421" stroke="#999" stroke-width="1.5" stroke-dasharray="2,5"/><line x1="405.7142857142857" y1="439" x2="405.7142857142857" y2="566" stroke="#999" stroke-width="1.5" stroke-dasharray="2,5"/><circle cx="405.7142857142857" cy="430" r="8" fill="#222"/><rect x="320.7142857142857" y="48" width="170" height="64" rx="4" fill="#f2f2f2" stroke="#222" stroke-width="1.5"/><text x="405.7142857142857" y="89" text-anchor="middle" font-family="Georgia, 'Times New Roman', serif" font-size="26" font-weight="700" fill="#111">2000</text><rect x="279.7142857142857" y="568" width="252" height="234" rx="4" fill="white" stroke="#222" stroke-width="1.5"/><foreignObject x="279.7142857142857" y="568" width="252" height="234"><div xmlns="http://www.w3.org/1999/xhtml" style="height:234px;display:flex;align-items:center;justify-content:center;text-align:center;padding:0 18px;box-sizing:border-box;font-family:Georgia, 'Times New Roman', serif;font-size:20px;line-height:1.42;color:#111;">ILOVEYOU worm spreads via email attachments</div></foreignObject><line x1="691.4285714285714" y1="118" x2="691.4285714285714" y2="421" stroke="#999" stroke-width="1.5" stroke-dasharray="2,5"/><line x1="691.4285714285714" y1="439" x2="691.4285714285714" y2="566" stroke="#999" stroke-width="1.5" stroke-dasharray="2,5"/><circle cx="691.4285714285714" cy="430" r="8" fill="#222"/><rect x="606.4285714285714" y="48" width="170" height="64" rx="4" fill="#f2f2f2" stroke="#222" stroke-width="1.5"/><text x="691.4285714285714" y="89" text-anchor="middle" font-family="Georgia, 'Times New Roman', serif" font-size="26" font-weight="700" fill="#111">2001</text><rect x="565.4285714285714" y="568" width="252" height="234" rx="4" fill="white" stroke="#222" stroke-width="1.5"/><foreignObject x="565.4285714285714" y="568" width="252" height="234"><div xmlns="http://www.w3.org/1999/xhtml" style="height:234px;display:flex;align-items:center;justify-content:center;text-align:center;padding:0 18px;box-sizing:border-box;font-family:Georgia, 'Times New Roman', serif;font-size:20px;line-height:1.42;color:#111;">Early e-commerce phishing attack (E-Gold)</div></foreignObject><line x1="977.1428571428571" y1="118" x2="977.1428571428571" y2="421" stroke="#999" stroke-width="1.5" stroke-dasharray="2,5"/><line x1="977.1428571428571" y1="439" x2="977.1428571428571" y2="566" stroke="#999" stroke-width="1.5" stroke-dasharray="2,5"/><circle cx="977.1428571428571" cy="430" r="8" fill="#222"/><rect x="892.1428571428571" y="48" width="170" height="64" rx="4" fill="#f2f2f2" stroke="#222" stroke-width="1.5"/><text x="977.1428571428571" y="89" text-anchor="middle" font-family="Georgia, 'Times New Roman', serif" font-size="26" font-weight="700" fill="#111">2003</text><rect x="851.1428571428571" y="568" width="252" height="234" rx="4" fill="white" stroke="#222" stroke-width="1.5"/><foreignObject x="851.1428571428571" y="568" width="252" height="234"><div xmlns="http://www.w3.org/1999/xhtml" style="height:234px;display:flex;align-items:center;justify-content:center;text-align:center;padding:0 18px;box-sizing:border-box;font-family:Georgia, 'Times New Roman', serif;font-size:20px;line-height:1.42;color:#111;">eBay / PayPal domain-spoofing campaigns</div></foreignObject><line x1="1262.857142857143" y1="118" x2="1262.857142857143" y2="421" stroke="#999" stroke-width="1.5" stroke-dasharray="2,5"/><line x1="1262.857142857143" y1="439" x2="1262.857142857143" y2="566" stroke="#999" stroke-width="1.5" stroke-dasharray="2,5"/><circle cx="1262.857142857143" cy="430" r="8" fill="#222"/><rect x="1177.857142857143" y="48" width="170" height="64" rx="4" fill="#f2f2f2" stroke="#222" stroke-width="1.5"/><text x="1262.857142857143" y="89" text-anchor="middle" font-family="Georgia, 'Times New Roman', serif" font-size="26" font-weight="700" fill="#111">Late 2000s</text><rect x="1136.857142857143" y="568" width="252" height="234" rx="4" fill="white" stroke="#222" stroke-width="1.5"/><foreignObject x="1136.857142857143" y="568" width="252" height="234"><div xmlns="http://www.w3.org/1999/xhtml" style="height:234px;display:flex;align-items:center;justify-content:center;text-align:center;padding:0 18px;box-sizing:border-box;font-family:Georgia, 'Times New Roman', serif;font-size:20px;line-height:1.42;color:#111;">Social-media era; rise of spear phishing</div></foreignObject><line x1="1548.5714285714287" y1="118" x2="1548.5714285714287" y2="421" stroke="#999" stroke-width="1.5" stroke-dasharray="2,5"/><line x1="1548.5714285714287" y1="439" x2="1548.5714285714287" y2="566" stroke="#999" stroke-width="1.5" stroke-dasharray="2,5"/><circle cx="1548.5714285714287" cy="430" r="8" fill="#222"/><rect x="1463.5714285714287" y="48" width="170" height="64" rx="4" fill="#f2f2f2" stroke="#222" stroke-width="1.5"/><text x="1548.5714285714287" y="89" text-anchor="middle" font-family="Georgia, 'Times New Roman', serif" font-size="26" font-weight="700" fill="#111">2016</text><rect x="1422.5714285714287" y="568" width="252" height="234" rx="4" fill="white" stroke="#222" stroke-width="1.5"/><foreignObject x="1422.5714285714287" y="568" width="252" height="234"><div xmlns="http://www.w3.org/1999/xhtml" style="height:234px;display:flex;align-items:center;justify-content:center;text-align:center;padding:0 18px;box-sizing:border-box;font-family:Georgia, 'Times New Roman', serif;font-size:20px;line-height:1.42;color:#111;">Business Email Compromise era</div></foreignObject><line x1="1834.2857142857142" y1="118" x2="1834.2857142857142" y2="421" stroke="#999" stroke-width="1.5" stroke-dasharray="2,5"/><line x1="1834.2857142857142" y1="439" x2="1834.2857142857142" y2="566" stroke="#999" stroke-width="1.5" stroke-dasharray="2,5"/><circle cx="1834.2857142857142" cy="430" r="8" fill="#222"/><rect x="1749.2857142857142" y="48" width="170" height="64" rx="4" fill="#f2f2f2" stroke="#222" stroke-width="1.5"/><text x="1834.2857142857142" y="89" text-anchor="middle" font-family="Georgia, 'Times New Roman', serif" font-size="26" font-weight="700" fill="#111">2022</text><rect x="1708.2857142857142" y="568" width="252" height="234" rx="4" fill="white" stroke="#222" stroke-width="1.5"/><foreignObject x="1708.2857142857142" y="568" width="252" height="234"><div xmlns="http://www.w3.org/1999/xhtml" style="height:234px;display:flex;align-items:center;justify-content:center;text-align:center;padding:0 18px;box-sizing:border-box;font-family:Georgia, 'Times New Roman', serif;font-size:20px;line-height:1.42;color:#111;">Generative-AI-assisted phishing</div></foreignObject><line x1="2120" y1="118" x2="2120" y2="421" stroke="#999" stroke-width="1.5" stroke-dasharray="2,5"/><line x1="2120" y1="439" x2="2120" y2="566" stroke="#999" stroke-width="1.5" stroke-dasharray="2,5"/><circle cx="2120" cy="430" r="8" fill="#222"/><rect x="2035" y="48" width="170" height="64" rx="4" fill="#f2f2f2" stroke="#222" stroke-width="1.5"/><text x="2120" y="89" text-anchor="middle" font-family="Georgia, 'Times New Roman', serif" font-size="26" font-weight="700" fill="#111">2025</text><rect x="1994" y="568" width="252" height="234" rx="4" fill="white" stroke="#222" stroke-width="1.5"/><foreignObject x="1994" y="568" width="252" height="234"><div xmlns="http://www.w3.org/1999/xhtml" style="height:234px;display:flex;align-items:center;justify-content:center;text-align:center;padding:0 18px;box-sizing:border-box;font-family:Georgia, 'Times New Roman', serif;font-size:20px;line-height:1.42;color:#111;">Record attack volumes + AI voice cloning</div></foreignObject></svg>