<svg id="my-svg" width="100%" xmlns="http://www.w3.org/2000/svg" xmlns:xlink="http://www.w3.org/1999/xlink" class="flowchart" style="max-width: 1944.95px; background-color: white;" viewBox="0 0 1944.953125 333.5" role="graphics-document document" aria-roledescription="flowchart-v2"><style>#my-svg{font-size:15px;fill:#000000;}@keyframes edge-animation-frame{from{stroke-dashoffset:0;}}@keyframes dash{to{stroke-dashoffset:0;}}#my-svg .edge-animation-slow{stroke-dasharray:9,5!important;stroke-dashoffset:900;animation:dash 50s linear infinite;stroke-linecap:round;}#my-svg .edge-animation-fast{stroke-dasharray:9,5!important;stroke-dashoffset:900;animation:dash 20s linear infinite;stroke-linecap:round;}#my-svg .error-icon{fill:#552222;}#my-svg .error-text{fill:#552222;stroke:#552222;}#my-svg .edge-thickness-normal{stroke-width:1px;}#my-svg .edge-thickness-thick{stroke-width:3.5px;}#my-svg .edge-pattern-solid{stroke-dasharray:0;}#my-svg .edge-thickness-invisible{stroke-width:0;fill:none;}#my-svg .edge-pattern-dashed{stroke-dasharray:3;}#my-svg .edge-pattern-dotted{stroke-dasharray:2;}#my-svg .marker{fill:#222;stroke:#222;}#my-svg .marker.cross{stroke:#222;}#my-svg svg{font-size:15px;}#my-svg p{margin:0;}#my-svg .label{color:#000000;}#my-svg .cluster-label text{fill:#333;}#my-svg .cluster-label span{color:#333;}#my-svg .cluster-label span p{background-color:transparent;}#my-svg .label text,#my-svg span{fill:#000000;color:#000000;}#my-svg .node rect,#my-svg .node circle,#my-svg .node ellipse,#my-svg .node polygon,#my-svg .node path{fill:#eee;stroke:#999;stroke-width:1px;}#my-svg .rough-node .label text,#my-svg .node .label text,#my-svg .image-shape .label,#my-svg .icon-shape .label{text-anchor:middle;}#my-svg .node .katex path{fill:#000;stroke:#000;stroke-width:1px;}#my-svg .rough-node .label,#my-svg .node .label,#my-svg .image-shape .label,#my-svg .icon-shape .label{text-align:center;}#my-svg .node.clickable{cursor:pointer;}#my-svg .root .anchor path{fill:#222!important;stroke-width:0;stroke:#222;}#my-svg .arrowheadPath{fill:#333333;}#my-svg .edgePath .path{stroke:#222;stroke-width:1px;}#my-svg .flowchart-link{stroke:#222;fill:none;}#my-svg .edgeLabel{background-color:white;text-align:center;}#my-svg .edgeLabel p{background-color:white;}#my-svg .edgeLabel rect{opacity:0.5;background-color:white;fill:white;}#my-svg .labelBkg{background-color:rgba(255, 255, 255, 0.5);}#my-svg .cluster rect{fill:#fafafa;stroke:#888;stroke-width:1px;}#my-svg .cluster text{fill:#333;}#my-svg .cluster span{color:#333;}#my-svg div.mermaidTooltip{position:absolute;text-align:center;max-width:200px;padding:2px;font-size:12px;background:hsl(-160, 0%, 93.3333333333%);border:1px solid #707070;border-radius:2px;pointer-events:none;z-index:100;}#my-svg .flowchartTitleText{text-anchor:middle;font-size:18px;fill:#000000;}#my-svg rect.text{fill:none;stroke-width:0;}#my-svg .icon-shape,#my-svg .image-shape{background-color:white;text-align:center;}#my-svg .icon-shape p,#my-svg .image-shape p{background-color:white;padding:2px;}#my-svg .icon-shape .label rect,#my-svg .image-shape .label rect{opacity:0.5;background-color:white;fill:white;}#my-svg .label-icon{display:inline-block;height:1em;overflow:visible;vertical-align:-0.125em;}#my-svg .node .label-icon path{fill:currentColor;stroke:revert;stroke-width:revert;}#my-svg .node .neo-node{stroke:#999;}#my-svg [data-look="neo"].node rect,#my-svg [data-look="neo"].cluster rect,#my-svg [data-look="neo"].node polygon{stroke:url(#my-svg-gradient);filter:drop-shadow( 1px 2px 2px rgba(185,185,185,1));}#my-svg [data-look="neo"].node path{stroke:url(#my-svg-gradient);stroke-width:1px;}#my-svg [data-look="neo"].node .outer-path{filter:drop-shadow( 1px 2px 2px rgba(185,185,185,1));}#my-svg [data-look="neo"].node .neo-line path{stroke:#999;filter:none;}#my-svg [data-look="neo"].node circle{stroke:url(#my-svg-gradient);filter:drop-shadow( 1px 2px 2px rgba(185,185,185,1));}#my-svg [data-look="neo"].node circle .state-start{fill:#000000;}#my-svg [data-look="neo"].icon-shape .icon{fill:url(#my-svg-gradient);filter:drop-shadow( 1px 2px 2px rgba(185,185,185,1));}#my-svg [data-look="neo"].icon-shape .icon-neo path{stroke:url(#my-svg-gradient);filter:drop-shadow( 1px 2px 2px rgba(185,185,185,1));}#my-svg :root{--mermaid-font-family:"trebuchet ms",verdana,arial,sans-serif;}</style><g><marker id="my-svg_flowchart-v2-pointEnd" class="marker flowchart-v2" viewBox="0 0 10 10" refX="5" refY="5" markerUnits="userSpaceOnUse" markerWidth="8" markerHeight="8" orient="auto"><path d="M 0 0 L 10 5 L 0 10 z" class="arrowMarkerPath" style="stroke-width: 1; stroke-dasharray: 1, 0;"/></marker><marker id="my-svg_flowchart-v2-pointStart" class="marker flowchart-v2" viewBox="0 0 10 10" refX="4.5" refY="5" markerUnits="userSpaceOnUse" markerWidth="8" markerHeight="8" orient="auto"><path d="M 0 5 L 10 10 L 10 0 z" class="arrowMarkerPath" style="stroke-width: 1; stroke-dasharray: 1, 0;"/></marker><marker id="my-svg_flowchart-v2-pointEnd-margin" class="marker flowchart-v2" viewBox="0 0 11.5 14" refX="11.5" refY="7" markerUnits="userSpaceOnUse" markerWidth="10.5" markerHeight="14" orient="auto"><path d="M 0 0 L 11.5 7 L 0 14 z" class="arrowMarkerPath" style="stroke-width: 0; stroke-dasharray: 1, 0;"/></marker><marker id="my-svg_flowchart-v2-pointStart-margin" class="marker flowchart-v2" viewBox="0 0 11.5 14" refX="1" refY="7" markerUnits="userSpaceOnUse" markerWidth="11.5" markerHeight="14" orient="auto"><polygon points="0,7 11.5,14 11.5,0" class="arrowMarkerPath" style="stroke-width: 0; stroke-dasharray: 1, 0;"/></marker><marker id="my-svg_flowchart-v2-circleEnd" class="marker flowchart-v2" viewBox="0 0 10 10" refX="11" refY="5" markerUnits="userSpaceOnUse" markerWidth="11" markerHeight="11" orient="auto"><circle cx="5" cy="5" r="5" class="arrowMarkerPath" style="stroke-width: 1; stroke-dasharray: 1, 0;"/></marker><marker id="my-svg_flowchart-v2-circleStart" class="marker flowchart-v2" viewBox="0 0 10 10" refX="-1" refY="5" markerUnits="userSpaceOnUse" markerWidth="11" markerHeight="11" orient="auto"><circle cx="5" cy="5" r="5" class="arrowMarkerPath" style="stroke-width: 1; stroke-dasharray: 1, 0;"/></marker><marker id="my-svg_flowchart-v2-circleEnd-margin" class="marker flowchart-v2" viewBox="0 0 10 10" refY="5" refX="12.25" markerUnits="userSpaceOnUse" markerWidth="14" markerHeight="14" orient="auto"><circle cx="5" cy="5" r="5" class="arrowMarkerPath" style="stroke-width: 0; stroke-dasharray: 1, 0;"/></marker><marker id="my-svg_flowchart-v2-circleStart-margin" class="marker flowchart-v2" viewBox="0 0 10 10" refX="-2" refY="5" markerUnits="userSpaceOnUse" markerWidth="14" markerHeight="14" orient="auto"><circle cx="5" cy="5" r="5" class="arrowMarkerPath" style="stroke-width: 0; stroke-dasharray: 1, 0;"/></marker><marker id="my-svg_flowchart-v2-crossEnd" class="marker cross flowchart-v2" viewBox="0 0 11 11" refX="12" refY="5.2" markerUnits="userSpaceOnUse" markerWidth="11" markerHeight="11" orient="auto"><path d="M 1,1 l 9,9 M 10,1 l -9,9" class="arrowMarkerPath" style="stroke-width: 2; stroke-dasharray: 1, 0;"/></marker><marker id="my-svg_flowchart-v2-crossStart" class="marker cross flowchart-v2" viewBox="0 0 11 11" refX="-1" refY="5.2" markerUnits="userSpaceOnUse" markerWidth="11" markerHeight="11" orient="auto"><path d="M 1,1 l 9,9 M 10,1 l -9,9" class="arrowMarkerPath" style="stroke-width: 2; stroke-dasharray: 1, 0;"/></marker><marker id="my-svg_flowchart-v2-crossEnd-margin" class="marker cross flowchart-v2" viewBox="0 0 15 15" refX="17.7" refY="7.5" markerUnits="userSpaceOnUse" markerWidth="12" markerHeight="12" orient="auto"><path d="M 1,1 L 14,14 M 1,14 L 14,1" class="arrowMarkerPath" style="stroke-width: 2.5;"/></marker><marker id="my-svg_flowchart-v2-crossStart-margin" class="marker cross flowchart-v2" viewBox="0 0 15 15" refX="-3.5" refY="7.5" markerUnits="userSpaceOnUse" markerWidth="12" markerHeight="12" orient="auto"><path d="M 1,1 L 14,14 M 1,14 L 14,1" class="arrowMarkerPath" style="stroke-width: 2.5; stroke-dasharray: 1, 0;"/></marker><g class="root"><g class="clusters"><g class="cluster" id="my-svg-G3" data-look="classic"><rect style="" x="8" y="93.5" width="652.421875" height="232"/><g class="cluster-label" transform="translate(334.2109375, 93.5)"><foreignObject width="0" height="0"><div xmlns="http://www.w3.org/1999/xhtml" style="display: table-cell; white-space: nowrap; line-height: 1.5;"><span class="nodeLabel"></span></div></foreignObject></g></g><g class="cluster" id="my-svg-G2" data-look="classic"><rect style="" x="680.421875" y="93.5" width="606.765625" height="232"/><g class="cluster-label" transform="translate(983.8046875, 93.5)"><foreignObject width="0" height="0"><div xmlns="http://www.w3.org/1999/xhtml" style="display: table-cell; white-space: nowrap; line-height: 1.5;"><span class="nodeLabel"></span></div></foreignObject></g></g><g class="cluster" id="my-svg-G1" data-look="classic"><rect style="" x="1307.1875" y="93.5" width="629.765625" height="232"/><g class="cluster-label" transform="translate(1622.0703125, 93.5)"><foreignObject width="0" height="0"><div xmlns="http://www.w3.org/1999/xhtml" style="display: table-cell; white-space: nowrap; line-height: 1.5;"><span class="nodeLabel"></span></div></foreignObject></g></g></g><g class="edgePaths"><path d="M1021.231,27.768L1119.311,34.14C1217.391,40.512,1413.551,53.256,1511.631,64.211C1609.711,75.167,1609.711,84.333,1609.711,92.833C1609.711,101.333,1609.711,109.167,1609.711,113.083L1609.711,117" id="my-svg-L_ROOT_A1_0" class="edge-thickness-normal edge-pattern-solid edge-thickness-normal edge-pattern-solid flowchart-link" style=";" data-edge="true" data-et="edge" data-id="L_ROOT_A1_0" data-points="W3sieCI6MTAyMS4yMzEyOTk0MzgwODYsInkiOjI3Ljc2NzY4NDgyNTk1Mzg0N30seyJ4IjoxNjA5LjcxMDkzNzUsInkiOjY2fSx7IngiOjE2MDkuNzEwOTM3NSwieSI6OTMuNX0seyJ4IjoxNjA5LjcxMDkzNzUsInkiOjEyMX1d" data-look="classic" marker-end="url(#my-svg_flowchart-v2-pointEnd)"/><path d="M960.137,39L960.053,43.5C959.97,48,959.803,57,959.72,66.083C959.637,75.167,959.637,84.333,959.637,92.833C959.637,101.333,959.637,109.167,959.637,113.083L959.637,117" id="my-svg-L_ROOT_A2_0" class="edge-thickness-normal edge-pattern-solid edge-thickness-normal edge-pattern-solid flowchart-link" style=";" data-edge="true" data-et="edge" data-id="L_ROOT_A2_0" data-points="W3sieCI6OTYwLjEzNjcxODc1LCJ5IjozOX0seyJ4Ijo5NTkuNjM2NzE4NzUsInkiOjY2fSx7IngiOjk1OS42MzY3MTg3NSwieSI6OTMuNX0seyJ4Ijo5NTkuNjM2NzE4NzUsInkiOjEyMX1d" data-look="classic" marker-end="url(#my-svg_flowchart-v2-pointEnd)"/><path d="M899.073,27.886L803.968,34.238C708.863,40.591,518.652,53.295,423.547,64.231C328.441,75.167,328.441,84.333,328.441,92.833C328.441,101.333,328.441,109.167,328.441,113.083L328.441,117" id="my-svg-L_ROOT_A3_0" class="edge-thickness-normal edge-pattern-solid edge-thickness-normal edge-pattern-solid flowchart-link" style=";" data-edge="true" data-et="edge" data-id="L_ROOT_A3_0" data-points="W3sieCI6ODk5LjA3MzEwMDI5MzkwMTMsInkiOjI3Ljg4NTc1NTgyMjgwMzU5Nn0seyJ4IjozMjguNDQxNDA2MjUsInkiOjY2fSx7IngiOjMyOC40NDE0MDYyNSwieSI6OTMuNX0seyJ4IjozMjguNDQxNDA2MjUsInkiOjEyMX1d" data-look="classic" marker-end="url(#my-svg_flowchart-v2-pointEnd)"/><path d="M1552.523,167.272L1527.005,174.31C1501.487,181.348,1450.451,195.424,1424.932,208.254C1399.414,221.083,1399.414,232.667,1399.414,238.458L1399.414,244.25" id="my-svg-L_A1_M1_0" class="edge-thickness-normal edge-pattern-solid edge-thickness-normal edge-pattern-solid flowchart-link" style=";" data-edge="true" data-et="edge" data-id="L_A1_M1_0" data-points="W3sieCI6MTU1Mi41MjM0Mzc1LCJ5IjoxNjcuMjcyMzQ1NjQyMzIxMX0seyJ4IjoxMzk5LjQxNDA2MjUsInkiOjIwOS41fSx7IngiOjEzOTkuNDE0MDYyNSwieSI6MjQ4LjI1fV0=" data-look="classic" marker-end="url(#my-svg_flowchart-v2-pointEnd)"/><path d="M1576.29,182L1571.268,186.583C1566.245,191.167,1556.201,200.333,1551.179,210.708C1546.156,221.083,1546.156,232.667,1546.156,238.458L1546.156,244.25" id="my-svg-L_A1_M2_0" class="edge-thickness-normal edge-pattern-solid edge-thickness-normal edge-pattern-solid flowchart-link" style=";" data-edge="true" data-et="edge" data-id="L_A1_M2_0" data-points="W3sieCI6MTU3Ni4yODk5MzgwMzg3OTMsInkiOjE4Mn0seyJ4IjoxNTQ2LjE1NjI1LCJ5IjoyMDkuNX0seyJ4IjoxNTQ2LjE1NjI1LCJ5IjoyNDguMjV9XQ==" data-look="classic" marker-end="url(#my-svg_flowchart-v2-pointEnd)"/><path d="M1643.132,182L1648.154,186.583C1653.176,191.167,1663.221,200.333,1668.243,210.708C1673.266,221.083,1673.266,232.667,1673.266,238.458L1673.266,244.25" id="my-svg-L_A1_M3_0" class="edge-thickness-normal edge-pattern-solid edge-thickness-normal edge-pattern-solid flowchart-link" style=";" data-edge="true" data-et="edge" data-id="L_A1_M3_0" data-points="W3sieCI6MTY0My4xMzE5MzY5NjEyMDcsInkiOjE4Mn0seyJ4IjoxNjczLjI2NTYyNSwieSI6MjA5LjV9LHsieCI6MTY3My4yNjU2MjUsInkiOjI0OC4yNX1d" data-look="classic" marker-end="url(#my-svg_flowchart-v2-pointEnd)"/><path d="M1666.898,166.461L1694.316,173.635C1721.734,180.808,1776.57,195.154,1803.988,208.119C1831.406,221.083,1831.406,232.667,1831.406,238.458L1831.406,244.25" id="my-svg-L_A1_M4_0" class="edge-thickness-normal edge-pattern-solid edge-thickness-normal edge-pattern-solid flowchart-link" style=";" data-edge="true" data-et="edge" data-id="L_A1_M4_0" data-points="W3sieCI6MTY2Ni44OTg0Mzc1LCJ5IjoxNjYuNDYxNDEyNDExNDU5OTd9LHsieCI6MTgzMS40MDYyNSwieSI6MjA5LjV9LHsieCI6MTgzMS40MDYyNSwieSI6MjQ4LjI1fV0=" data-look="classic" marker-end="url(#my-svg_flowchart-v2-pointEnd)"/><path d="M882.02,172.229L858.76,178.441C835.5,184.653,788.98,197.076,765.721,209.08C742.461,221.083,742.461,232.667,742.461,238.458L742.461,244.25" id="my-svg-L_A2_C1_0" class="edge-thickness-normal edge-pattern-solid edge-thickness-normal edge-pattern-solid flowchart-link" style=";" data-edge="true" data-et="edge" data-id="L_A2_C1_0" data-points="W3sieCI6ODgyLjAxOTUzMTI1LCJ5IjoxNzIuMjI4ODE2MzAzMDM3OTV9LHsieCI6NzQyLjQ2MDkzNzUsInkiOjIwOS41fSx7IngiOjc0Mi40NjA5Mzc1LCJ5IjoyNDguMjV9XQ==" data-look="classic" marker-end="url(#my-svg_flowchart-v2-pointEnd)"/><path d="M916.157,182L909.623,186.583C903.089,191.167,890.021,200.333,883.487,210.708C876.953,221.083,876.953,232.667,876.953,238.458L876.953,244.25" id="my-svg-L_A2_C2_0" class="edge-thickness-normal edge-pattern-solid edge-thickness-normal edge-pattern-solid flowchart-link" style=";" data-edge="true" data-et="edge" data-id="L_A2_C2_0" data-points="W3sieCI6OTE2LjE1NjU1MzA3MTEyMDcsInkiOjE4Mn0seyJ4Ijo4NzYuOTUzMTI1LCJ5IjoyMDkuNX0seyJ4Ijo4NzYuOTUzMTI1LCJ5IjoyNDguMjV9XQ==" data-look="classic" marker-end="url(#my-svg_flowchart-v2-pointEnd)"/><path d="M1003.117,182L1009.651,186.583C1016.185,191.167,1029.253,200.333,1035.786,210.708C1042.32,221.083,1042.32,232.667,1042.32,238.458L1042.32,244.25" id="my-svg-L_A2_C3_0" class="edge-thickness-normal edge-pattern-solid edge-thickness-normal edge-pattern-solid flowchart-link" style=";" data-edge="true" data-et="edge" data-id="L_A2_C3_0" data-points="W3sieCI6MTAwMy4xMTY4ODQ0Mjg4NzkzLCJ5IjoxODJ9LHsieCI6MTA0Mi4zMjAzMTI1LCJ5IjoyMDkuNX0seyJ4IjoxMDQyLjMyMDMxMjUsInkiOjI0OC4yNX1d" data-look="classic" marker-end="url(#my-svg_flowchart-v2-pointEnd)"/><path d="M1037.254,170.135L1064.58,176.696C1091.906,183.257,1146.559,196.378,1173.885,208.731C1201.211,221.083,1201.211,232.667,1201.211,238.458L1201.211,244.25" id="my-svg-L_A2_C4_0" class="edge-thickness-normal edge-pattern-solid edge-thickness-normal edge-pattern-solid flowchart-link" style=";" data-edge="true" data-et="edge" data-id="L_A2_C4_0" data-points="W3sieCI6MTAzNy4yNTM5MDYyNSwieSI6MTcwLjEzNTI1Mzc4NzgxNzUzfSx7IngiOjEyMDEuMjEwOTM3NSwieSI6MjA5LjV9LHsieCI6MTIwMS4yMTA5Mzc1LCJ5IjoyNDguMjV9XQ==" data-look="classic" marker-end="url(#my-svg_flowchart-v2-pointEnd)"/><path d="M271.574,165.729L242.42,173.025C213.266,180.32,154.957,194.91,125.803,207.997C96.648,221.083,96.648,232.667,96.648,238.458L96.648,244.25" id="my-svg-L_A3_T1_0" class="edge-thickness-normal edge-pattern-solid edge-thickness-normal edge-pattern-solid flowchart-link" style=";" data-edge="true" data-et="edge" data-id="L_A3_T1_0" data-points="W3sieCI6MjcxLjU3NDIxODc1LCJ5IjoxNjUuNzI5NDk0OTM1ODc2OTF9LHsieCI6OTYuNjQ4NDM3NSwieSI6MjA5LjV9LHsieCI6OTYuNjQ4NDM3NSwieSI6MjQ4LjI1fV0=" data-look="classic" marker-end="url(#my-svg_flowchart-v2-pointEnd)"/><path d="M291.054,182L285.435,186.583C279.817,191.167,268.58,200.333,262.962,210.708C257.344,221.083,257.344,232.667,257.344,238.458L257.344,244.25" id="my-svg-L_A3_T2_0" class="edge-thickness-normal edge-pattern-solid edge-thickness-normal edge-pattern-solid flowchart-link" style=";" data-edge="true" data-et="edge" data-id="L_A3_T2_0" data-points="W3sieCI6MjkxLjA1Mzg0NTYzNTc3NTksInkiOjE4Mn0seyJ4IjoyNTcuMzQzNzUsInkiOjIwOS41fSx7IngiOjI1Ny4zNDM3NSwieSI6MjQ4LjI1fV0=" data-look="classic" marker-end="url(#my-svg_flowchart-v2-pointEnd)"/><path d="M365.829,182L371.447,186.583C377.066,191.167,388.302,200.333,393.921,210.708C399.539,221.083,399.539,232.667,399.539,238.458L399.539,244.25" id="my-svg-L_A3_T3_0" class="edge-thickness-normal edge-pattern-solid edge-thickness-normal edge-pattern-solid flowchart-link" style=";" data-edge="true" data-et="edge" data-id="L_A3_T3_0" data-points="W3sieCI6MzY1LjgyODk2Njg2NDIyNDEsInkiOjE4Mn0seyJ4IjozOTkuNTM5MDYyNSwieSI6MjA5LjV9LHsieCI6Mzk5LjUzOTA2MjUsInkiOjI0OC4yNX1d" data-look="classic" marker-end="url(#my-svg_flowchart-v2-pointEnd)"/><path d="M385.309,166.055L413.6,173.296C441.891,180.536,498.473,195.018,526.764,206.176C555.055,217.333,555.055,225.167,555.055,229.083L555.055,233" id="my-svg-L_A3_T4_0" class="edge-thickness-normal edge-pattern-solid edge-thickness-normal edge-pattern-solid flowchart-link" style=";" data-edge="true" data-et="edge" data-id="L_A3_T4_0" data-points="W3sieCI6Mzg1LjMwODU5Mzc1LCJ5IjoxNjYuMDU0NzM3NzMxMTk4MTd9LHsieCI6NTU1LjA1NDY4NzUsInkiOjIwOS41fSx7IngiOjU1NS4wNTQ2ODc1LCJ5IjoyMzd9XQ==" data-look="classic" marker-end="url(#my-svg_flowchart-v2-pointEnd)"/></g><g class="edgeLabels"><g class="edgeLabel"><g class="label" data-id="L_ROOT_A1_0" transform="translate(0, 0)"><foreignObject width="0" height="0"><div xmlns="http://www.w3.org/1999/xhtml" class="labelBkg" style="display: table-cell; white-space: nowrap; line-height: 1.5; max-width: 200px; text-align: center;"><span class="edgeLabel"></span></div></foreignObject></g></g><g class="edgeLabel"><g class="label" data-id="L_ROOT_A2_0" transform="translate(0, 0)"><foreignObject width="0" height="0"><div xmlns="http://www.w3.org/1999/xhtml" class="labelBkg" style="display: table-cell; white-space: nowrap; line-height: 1.5; max-width: 200px; text-align: center;"><span class="edgeLabel"></span></div></foreignObject></g></g><g class="edgeLabel"><g class="label" data-id="L_ROOT_A3_0" transform="translate(0, 0)"><foreignObject width="0" height="0"><div xmlns="http://www.w3.org/1999/xhtml" class="labelBkg" style="display: table-cell; white-space: nowrap; line-height: 1.5; max-width: 200px; text-align: center;"><span class="edgeLabel"></span></div></foreignObject></g></g><g class="edgeLabel"><g class="label" data-id="L_A1_M1_0" transform="translate(0, 0)"><foreignObject width="0" height="0"><div xmlns="http://www.w3.org/1999/xhtml" class="labelBkg" style="display: table-cell; white-space: nowrap; line-height: 1.5; max-width: 200px; text-align: center;"><span class="edgeLabel"></span></div></foreignObject></g></g><g class="edgeLabel"><g class="label" data-id="L_A1_M2_0" transform="translate(0, 0)"><foreignObject width="0" height="0"><div xmlns="http://www.w3.org/1999/xhtml" class="labelBkg" style="display: table-cell; white-space: nowrap; line-height: 1.5; max-width: 200px; text-align: center;"><span class="edgeLabel"></span></div></foreignObject></g></g><g class="edgeLabel"><g class="label" data-id="L_A1_M3_0" transform="translate(0, 0)"><foreignObject width="0" height="0"><div xmlns="http://www.w3.org/1999/xhtml" class="labelBkg" style="display: table-cell; white-space: nowrap; line-height: 1.5; max-width: 200px; text-align: center;"><span class="edgeLabel"></span></div></foreignObject></g></g><g class="edgeLabel"><g class="label" data-id="L_A1_M4_0" transform="translate(0, 0)"><foreignObject width="0" height="0"><div xmlns="http://www.w3.org/1999/xhtml" class="labelBkg" style="display: table-cell; white-space: nowrap; line-height: 1.5; max-width: 200px; text-align: center;"><span class="edgeLabel"></span></div></foreignObject></g></g><g class="edgeLabel"><g class="label" data-id="L_A2_C1_0" transform="translate(0, 0)"><foreignObject width="0" height="0"><div xmlns="http://www.w3.org/1999/xhtml" class="labelBkg" style="display: table-cell; white-space: nowrap; line-height: 1.5; max-width: 200px; text-align: center;"><span class="edgeLabel"></span></div></foreignObject></g></g><g class="edgeLabel"><g class="label" data-id="L_A2_C2_0" transform="translate(0, 0)"><foreignObject width="0" height="0"><div xmlns="http://www.w3.org/1999/xhtml" class="labelBkg" style="display: table-cell; white-space: nowrap; line-height: 1.5; max-width: 200px; text-align: center;"><span class="edgeLabel"></span></div></foreignObject></g></g><g class="edgeLabel"><g class="label" data-id="L_A2_C3_0" transform="translate(0, 0)"><foreignObject width="0" height="0"><div xmlns="http://www.w3.org/1999/xhtml" class="labelBkg" style="display: table-cell; white-space: nowrap; line-height: 1.5; max-width: 200px; text-align: center;"><span class="edgeLabel"></span></div></foreignObject></g></g><g class="edgeLabel"><g class="label" data-id="L_A2_C4_0" transform="translate(0, 0)"><foreignObject width="0" height="0"><div xmlns="http://www.w3.org/1999/xhtml" class="labelBkg" style="display: table-cell; white-space: nowrap; line-height: 1.5; max-width: 200px; text-align: center;"><span class="edgeLabel"></span></div></foreignObject></g></g><g class="edgeLabel"><g class="label" data-id="L_A3_T1_0" transform="translate(0, 0)"><foreignObject width="0" height="0"><div xmlns="http://www.w3.org/1999/xhtml" class="labelBkg" style="display: table-cell; white-space: nowrap; line-height: 1.5; max-width: 200px; text-align: center;"><span class="edgeLabel"></span></div></foreignObject></g></g><g class="edgeLabel"><g class="label" data-id="L_A3_T2_0" transform="translate(0, 0)"><foreignObject width="0" height="0"><div xmlns="http://www.w3.org/1999/xhtml" class="labelBkg" style="display: table-cell; white-space: nowrap; line-height: 1.5; max-width: 200px; text-align: center;"><span class="edgeLabel"></span></div></foreignObject></g></g><g class="edgeLabel"><g class="label" data-id="L_A3_T3_0" transform="translate(0, 0)"><foreignObject width="0" height="0"><div xmlns="http://www.w3.org/1999/xhtml" class="labelBkg" style="display: table-cell; white-space: nowrap; line-height: 1.5; max-width: 200px; text-align: center;"><span class="edgeLabel"></span></div></foreignObject></g></g><g class="edgeLabel"><g class="label" data-id="L_A3_T4_0" transform="translate(0, 0)"><foreignObject width="0" height="0"><div xmlns="http://www.w3.org/1999/xhtml" class="labelBkg" style="display: table-cell; white-space: nowrap; line-height: 1.5; max-width: 200px; text-align: center;"><span class="edgeLabel"></span></div></foreignObject></g></g></g><g class="nodes"><g class="node default" id="my-svg-flowchart-ROOT-0" data-look="classic" transform="translate(959.63671875, 23.25)"><g class="basic label-container outer-path"><path d="M-46.390625 -15.25 C-22.10875840653014 -15.25, 2.1731081869397215 -15.25, 46.390625 -15.25 C46.390625 -15.25, 46.390625 -15.25, 46.390625 -15.25 C46.62181553847246 -15.242586169416272, 46.85300607694492 -15.235172338832545, 47.36769585470587 -15.21866723944263 C47.66858991750262 -15.189640351082682, 47.96948398029937 -15.160613462722734, 48.34075171568872 -15.124797710804504 C48.66705185336591 -15.072044035040216, 48.993351991043106 -15.019290359275928, 49.30579408769592 -14.968777144113748 C49.63785033940937 -14.8929874715297, 49.969906591122815 -14.817197798945655, 50.25885740461999 -14.7512466613452 C50.59088571267573 -14.65270240236641, 50.92291402073147 -14.55415814338762, 51.196025324860216 -14.473100141912697 C51.505487214198624 -14.359215306001817, 51.81494910353703 -14.245330470090936, 52.11344682441045 -14.135480549526832 C52.33179205105739 -14.038825594671254, 52.55013727770433 -13.942170639815673, 53.00735202154276 -13.739775235511893 C53.33570411259558 -13.568474159929186, 53.66405620364841 -13.397173084346482, 53.87406766806005 -13.28761023788169 C54.20539138199937 -13.086759855417407, 54.536715095938696 -12.885909472953125, 54.710032243460866 -12.780843599600571 C54.973238720643714 -12.597242155142574, 55.23644519782656 -12.413640710684577, 55.51181058999104 -12.221557733486339 C55.671381409128486 -12.094304251582063, 55.83095222826593 -11.967050769677785, 56.27610802844377 -11.612050865129302 C56.46668338902685 -11.438975364995478, 56.65725874960992 -11.265899864861657, 56.999783896703164 -10.954827588990346 C57.26759749129645 -10.678288064667743, 57.535411085889734 -10.401748540345142, 57.67986445539856 -10.252588576485085 C57.840044766638485 -10.064431668384758, 58.000225077878405 -9.87627476028443, 58.313555107637455 -9.508219478345687 C58.537411416266885 -9.208272418511509, 58.761267724896314 -8.90832535867733, 58.898251882603574 -8.724779066863091 C59.1072965788483 -8.403630277070421, 59.316341275093016 -8.082481487277752, 59.431552135831524 -7.905486666735508 C59.61473610443057 -7.580224981099663, 59.79792007302961 -7.254963295463818, 59.91126442218825 -7.053708926172738 C60.00886122989403 -6.85104706673453, 60.106458037599815 -6.648385207296323, 60.33541750099114 -6.172945982616509 C60.43573004567863 -5.925172057827291, 60.53604259036612 -5.677398133038073, 60.70226843625884 -5.266817079924949 C60.77158913971356 -5.058034165873521, 60.84090984316828 -4.8492512518220945, 61.01030975880907 -4.339045696123249 C61.07182654229377 -4.104455539153481, 61.13334332577847 -3.8698653821837126, 61.25827566077281 -3.3934442428337963 C61.32963415916296 -3.0270334352243666, 61.400992657553104 -2.660622627614937, 61.44514719707036 -2.433898399259039 C61.49253228670876 -2.066389001267954, 61.53991737634716 -1.6988796032768698, 61.570156472475276 -1.4643511450921496 C61.593834049277746 -1.0955537741977137, 61.61751162608021 -0.7267564033032781, 61.63278979706049 -0.4887865579677413 C61.63278979706049 -0.27139937075022025, 61.63278979706049 -0.05401218353269921, 61.63278979706049 0.48878655796773757 C61.614926625725815 0.7670198703977147, 61.59706345439114 1.0452531828276916, 61.570156472475276 1.4643511450921392 C61.53307841900286 1.751921205934374, 61.49600036553045 2.039491266776609, 61.44514719707037 2.433898399259028 C61.38178666215201 2.759241354811012, 61.31842612723364 3.0845843103629953, 61.25827566077281 3.3934442428337928 C61.16266581979806 3.7580460040377206, 61.067055978823305 4.122647765241648, 61.01030975880907 4.339045696123239 C60.89797966002574 4.677366056287918, 60.7856495612424 5.015686416452596, 60.70226843625885 5.266817079924938 C60.591530889823375 5.540340960585368, 60.4807933433879 5.813864841245799, 60.33541750099114 6.172945982616505 C60.170826970428976 6.514721741002035, 60.00623643986681 6.856497499387563, 59.91126442218825 7.053708926172734 C59.78494244529345 7.278006387636673, 59.65862046839865 7.502303849100612, 59.43155213583153 7.905486666735506 C59.29738992186178 8.111595854991837, 59.16322770789203 8.317705043248166, 58.89825188260358 8.724779066863082 C58.7129433818861 8.973075575872798, 58.527634881168616 9.221372084882512, 58.313555107637455 9.508219478345683 C58.123685193995314 9.731251482813892, 57.933815280353166 9.954283487282103, 57.679864455398565 10.252588576485076 C57.500758407610626 10.43753027570612, 57.321652359822686 10.622471974927164, 56.99978389670317 10.954827588990343 C56.73415669484792 11.196063185604652, 56.468529492992666 11.43729878221896, 56.27610802844379 11.61205086512929 C56.000953470828755 11.831479302656987, 55.72579891321372 12.050907740184682, 55.51181058999104 12.221557733486337 C55.324631601889095 12.352125692738456, 55.13745261378715 12.482693651990573, 54.71003224346087 12.780843599600566 C54.52023509766262 12.895899744755301, 54.33043795186437 13.010955889910035, 53.87406766806005 13.287610237881688 C53.54263389365416 13.460519025695776, 53.211200119248275 13.633427813509865, 53.007352021542765 13.73977523551189 C52.665212215462134 13.89123037844704, 52.32307240938151 14.04268552138219, 52.11344682441046 14.13548054952683 C51.74715893919275 14.270277877215042, 51.38087105397504 14.405075204903252, 51.19602532486022 14.473100141912694 C51.00181202732642 14.530741629174324, 50.807598729792616 14.588383116435956, 50.25885740462 14.751246661345196 C49.97329836640427 14.816423648371064, 49.68773932818854 14.88160063539693, 49.30579408769593 14.968777144113746 C49.038710095132394 15.011957212764122, 48.77162610256885 15.055137281414497, 48.340751715688725 15.124797710804502 C48.13433278953958 15.144710696355032, 47.92791386339042 15.16462368190556, 47.36769585470587 15.21866723944263 C47.027797144224316 15.229567129515068, 46.68789843374277 15.240467019587506, 46.390625 15.25 C46.390625 15.25, 46.390625 15.25, 46.390625 15.25 C27.60177641688423 15.25, 8.812927833768462 15.25, -46.390625 15.25 C-46.64337438444451 15.241894819187696, -46.896123768889034 15.233789638375393, -47.367695854705865 15.21866723944263 C-47.635452444666214 15.192837083233567, -47.90320903462656 15.167006927024506, -48.34075171568872 15.124797710804502 C-48.63559453144526 15.07712981089317, -48.930437347201796 15.02946191098184, -49.30579408769593 14.968777144113746 C-49.68376345219181 14.882508103148169, -50.061732816687694 14.79623906218259, -50.25885740461998 14.7512466613452 C-50.53806495123615 14.66837932709984, -50.81727249785233 14.58551199285448, -51.19602532486021 14.4731001419127 C-51.388374666377125 14.402313806176654, -51.58072400789404 14.331527470440609, -52.11344682441046 14.135480549526832 C-52.45905327554028 13.98249082566278, -52.804659726670096 13.829501101798726, -53.00735202154276 13.739775235511894 C-53.254414333696175 13.610882985512422, -53.50147664584959 13.481990735512948, -53.87406766806005 13.287610237881692 C-54.199292879479 13.090456803484036, -54.524518090897956 12.89330336908638, -54.71003224346086 12.780843599600576 C-54.950398166207975 12.613174737165282, -55.190764088955085 12.445505874729989, -55.51181058999104 12.22155773348634 C-55.701823375719016 12.070027593320871, -55.89183616144698 11.9184974531554, -56.27610802844377 11.612050865129303 C-56.43118005798806 11.471218550878245, -56.58625208753235 11.330386236627188, -56.999783896703164 10.954827588990353 C-57.19785393458612 10.750304013023658, -57.395923972469085 10.545780437056964, -57.679864455398565 10.252588576485081 C-57.84478032839275 10.058869008087102, -58.00969620138694 9.865149439689121, -58.313555107637455 9.508219478345689 C-58.49238821837865 9.268599401984032, -58.67122132911985 9.028979325622375, -58.898251882603574 8.724779066863093 C-59.03376238742392 8.516598541793462, -59.169272892244265 8.308418016723829, -59.431552135831524 7.9054866667355155 C-59.60415857354557 7.599006458277133, -59.77676501125961 7.29252624981875, -59.91126442218825 7.05370892617274 C-60.000601052271975 6.868199502306223, -60.089937682355696 6.682690078439706, -60.33541750099114 6.172945982616511 C-60.42171486334335 5.959789829160555, -60.50801222569556 5.746633675704598, -60.70226843625884 5.26681707992495 C-60.821435102732956 4.907906067134774, -60.94060176920708 4.548995054344598, -61.01030975880907 4.339045696123245 C-61.08242506793925 4.064038767437198, -61.154540377069424 3.789031838751151, -61.25827566077281 3.393444242833798 C-61.30586673210424 3.149074149923387, -61.353457803435674 2.904704057012976, -61.44514719707036 2.4338983992590406 C-61.489133282813334 2.0927510042716606, -61.53311936855631 1.7516036092842808, -61.570156472475276 1.4643511450921582 C-61.59332708978939 1.1034500774391682, -61.6164977071035 0.7425490097861781, -61.63278979706049 0.4887865579677432 C-61.63278979706049 0.15297962064778625, -61.63278979706049 -0.18282731667217067, -61.63278979706049 -0.4887865579677358 C-61.615995312689805 -0.7503742083050088, -61.59920082831911 -1.0119618586422818, -61.570156472475276 -1.4643511450921374 C-61.53868846465792 -1.7084107996625373, -61.50722045684057 -1.952470454232937, -61.44514719707037 -2.4338983992590335 C-61.3754140315063 -2.7919634663207504, -61.305680865942236 -3.150028533382468, -61.25827566077281 -3.393444242833791 C-61.16641723355714 -3.743740237501325, -61.07455880634148 -4.094036232168859, -61.01030975880908 -4.339045696123237 C-60.91430628844708 -4.628192852777824, -60.81830281808508 -4.91734000943241, -60.70226843625885 -5.266817079924931 C-60.60881126124411 -5.497658109082907, -60.515354086229365 -5.728499138240883, -60.33541750099114 -6.172945982616503 C-60.224563768306595 -6.403136130425871, -60.11371003562205 -6.63332627823524, -59.91126442218825 -7.053708926172733 C-59.74743208882066 -7.344609823889585, -59.583599755453065 -7.635510721606438, -59.431552135831524 -7.90548666673551 C-59.269824514978524 -8.153943722312679, -59.10809689412553 -8.402400777889847, -58.898251882603574 -8.724779066863087 C-58.7162727708205 -8.968614498014269, -58.534293659037424 -9.21244992916545, -58.313555107637455 -9.508219478345683 C-58.11789592747648 -9.738051884685511, -57.92223674731551 -9.96788429102534, -57.67986445539857 -10.252588576485076 C-57.41816018142596 -10.52281972568228, -57.15645590745335 -10.793050874879485, -56.99978389670318 -10.954827588990337 C-56.83237973174856 -11.106859622330633, -56.66497556679394 -11.258891655670928, -56.27610802844379 -11.612050865129289 C-56.02212171763603 -11.81459818913889, -55.76813540682828 -12.017145513148488, -55.51181058999105 -12.221557733486335 C-55.34053506772227 -12.341032123423178, -55.169259545453485 -12.460506513360018, -54.71003224346087 -12.780843599600564 C-54.495429292546135 -12.910937169592001, -54.2808263416314 -13.041030739583439, -53.87406766806005 -13.287610237881687 C-53.57473396699621 -13.443772437994303, -53.27540026593238 -13.599934638106921, -53.007352021542765 -13.73977523551189 C-52.67113360955128 -13.888609152935688, -52.3349151975598 -14.037443070359487, -52.11344682441046 -14.135480549526829 C-51.888494123367686 -14.218265222950544, -51.66354142232491 -14.301049896374261, -51.19602532486023 -14.473100141912694 C-50.873867663201004 -14.568714844853078, -50.55171000154178 -14.664329547793463, -50.25885740462 -14.751246661345194 C-50.00083159893324 -14.810139367717458, -49.74280579324648 -14.869032074089722, -49.305794087695936 -14.968777144113744 C-49.04715301575318 -15.01059222683398, -48.788511943810434 -15.052407309554214, -48.340751715688725 -15.124797710804502 C-47.99250980220366 -15.15839218937623, -47.644267888718595 -15.191986667947958, -47.36769585470587 -15.21866723944263 C-47.07871600777681 -15.227934260668494, -46.78973616084776 -15.237201281894361, -46.39062500000001 -15.25 C-46.39062500000001 -15.25, -46.390625 -15.25, -46.390625 -15.25" stroke="none" stroke-width="0" fill="#e9eefc" style="fill:#e9eefc !important;stroke:#111 !important;stroke-width:3px !important"/><path d="M-46.390625 -15.25 C-26.009130747889664 -15.25, -5.627636495779328 -15.25, 46.390625 -15.25 M-46.390625 -15.25 C-14.174361447095023 -15.25, 18.041902105809953 -15.25, 46.390625 -15.25 M46.390625 -15.25 C46.390625 -15.25, 46.390625 -15.25, 46.390625 -15.25 M46.390625 -15.25 C46.390625 -15.25, 46.390625 -15.25, 46.390625 -15.25 M46.390625 -15.25 C46.71452449487551 -15.239613173631463, 47.038423989751024 -15.229226347262927, 47.36769585470587 -15.21866723944263 M46.390625 -15.25 C46.770263011458354 -15.237825747893092, 47.1499010229167 -15.225651495786185, 47.36769585470587 -15.21866723944263 M47.36769585470587 -15.21866723944263 C47.63220940856661 -15.193149935025776, 47.89672296242734 -15.167632630608923, 48.34075171568872 -15.124797710804504 M47.36769585470587 -15.21866723944263 C47.59441775750419 -15.196795650152657, 47.82113966030251 -15.174924060862685, 48.34075171568872 -15.124797710804504 M48.34075171568872 -15.124797710804504 C48.676925170737746 -15.070447793656257, 49.013098625786775 -15.016097876508011, 49.30579408769592 -14.968777144113748 M48.34075171568872 -15.124797710804504 C48.64762590320663 -15.075184672011476, 48.954500090724544 -15.025571633218446, 49.30579408769592 -14.968777144113748 M49.30579408769592 -14.968777144113748 C49.5837630613637 -14.90533253979115, 49.86173203503148 -14.841887935468552, 50.25885740461999 -14.7512466613452 M49.30579408769592 -14.968777144113748 C49.55728968297649 -14.911374915653093, 49.80878527825705 -14.853972687192439, 50.25885740461999 -14.7512466613452 M50.25885740461999 -14.7512466613452 C50.48304536836503 -14.684708850492306, 50.70723333211007 -14.618171039639414, 51.196025324860216 -14.473100141912697 M50.25885740461999 -14.7512466613452 C50.46874948096079 -14.68895179483324, 50.67864155730159 -14.626656928321282, 51.196025324860216 -14.473100141912697 M51.196025324860216 -14.473100141912697 C51.41272510934108 -14.393352618072889, 51.629424893821955 -14.313605094233079, 52.11344682441045 -14.135480549526832 M51.196025324860216 -14.473100141912697 C51.46677690675509 -14.373461056975195, 51.737528488649964 -14.273821972037695, 52.11344682441045 -14.135480549526832 M52.11344682441045 -14.135480549526832 C52.327898864390484 -14.040548992921416, 52.542350904370515 -13.945617436315997, 53.00735202154276 -13.739775235511893 M52.11344682441045 -14.135480549526832 C52.41315290703778 -14.00280955721278, 52.712858989665094 -13.870138564898728, 53.00735202154276 -13.739775235511893 M53.00735202154276 -13.739775235511893 C53.28578122562767 -13.594518898083209, 53.564210429712595 -13.449262560654523, 53.87406766806005 -13.28761023788169 M53.00735202154276 -13.739775235511893 C53.33241495751308 -13.570190110028925, 53.657477893483396 -13.400604984545957, 53.87406766806005 -13.28761023788169 M53.87406766806005 -13.28761023788169 C54.11417072235135 -13.142058355368134, 54.354273776642664 -12.996506472854579, 54.710032243460866 -12.780843599600571 M53.87406766806005 -13.28761023788169 C54.11213242118966 -13.143293985510738, 54.35019717431928 -12.998977733139787, 54.710032243460866 -12.780843599600571 M54.710032243460866 -12.780843599600571 C54.944900631721865 -12.617009579238356, 55.179769019982864 -12.453175558876143, 55.51181058999104 -12.221557733486339 M54.710032243460866 -12.780843599600571 C54.93972246260346 -12.620621645856026, 55.16941268174606 -12.460399692111482, 55.51181058999104 -12.221557733486339 M55.51181058999104 -12.221557733486339 C55.75455496529272 -12.027975553882369, 55.9972993405944 -11.834393374278397, 56.27610802844377 -11.612050865129302 M55.51181058999104 -12.221557733486339 C55.67157920745293 -12.094146512681952, 55.831347824914815 -11.966735291877566, 56.27610802844377 -11.612050865129302 M56.27610802844377 -11.612050865129302 C56.496336329675344 -11.41204534887233, 56.71656463090692 -11.212039832615359, 56.999783896703164 -10.954827588990346 M56.27610802844377 -11.612050865129302 C56.5061597376803 -11.403123989635366, 56.73621144691682 -11.194197114141431, 56.999783896703164 -10.954827588990346 M56.999783896703164 -10.954827588990346 C57.22354261774439 -10.723778338582628, 57.44730133878562 -10.492729088174908, 57.67986445539856 -10.252588576485085 M56.999783896703164 -10.954827588990346 C57.25003850090324 -10.696419163868656, 57.50029310510332 -10.438010738746966, 57.67986445539856 -10.252588576485085 M57.67986445539856 -10.252588576485085 C57.8884295361723 -10.007596164918953, 58.09699461694605 -9.76260375335282, 58.313555107637455 -9.508219478345687 M57.67986445539856 -10.252588576485085 C57.84691388035344 -10.056362816551529, 58.013963305308316 -9.860137056617972, 58.313555107637455 -9.508219478345687 M58.313555107637455 -9.508219478345687 C58.45647309252262 -9.316722398695832, 58.599391077407795 -9.125225319045976, 58.898251882603574 -8.724779066863091 M58.313555107637455 -9.508219478345687 C58.4850276443277 -9.278461900650214, 58.65650018101795 -9.048704322954741, 58.898251882603574 -8.724779066863091 M58.898251882603574 -8.724779066863091 C59.02895782271444 -8.52397964339349, 59.15966376282531 -8.323180219923888, 59.431552135831524 -7.905486666735508 M58.898251882603574 -8.724779066863091 C59.056223477765336 -8.482092275381783, 59.21419507292709 -8.239405483900477, 59.431552135831524 -7.905486666735508 M59.431552135831524 -7.905486666735508 C59.56373211131263 -7.670787735594897, 59.69591208679375 -7.436088804454286, 59.91126442218825 -7.053708926172738 M59.431552135831524 -7.905486666735508 C59.553038327102826 -7.689775632322482, 59.674524518374135 -7.474064597909457, 59.91126442218825 -7.053708926172738 M59.91126442218825 -7.053708926172738 C60.02839256907547 -6.810489823020568, 60.14552071596268 -6.567270719868398, 60.33541750099114 -6.172945982616509 M59.91126442218825 -7.053708926172738 C60.04892128153937 -6.767861512345198, 60.18657814089048 -6.4820140985176575, 60.33541750099114 -6.172945982616509 M60.33541750099114 -6.172945982616509 C60.4474970388823 -5.896107357114904, 60.55957657677345 -5.619268731613298, 60.70226843625884 -5.266817079924949 M60.33541750099114 -6.172945982616509 C60.46144709534496 -5.8616504479461256, 60.58747668969878 -5.550354913275742, 60.70226843625884 -5.266817079924949 M60.70226843625884 -5.266817079924949 C60.79950874697555 -4.97394475718573, 60.896749057692254 -4.681072434446509, 61.01030975880907 -4.339045696123249 M60.70226843625884 -5.266817079924949 C60.80384713964664 -4.960878209689388, 60.90542584303445 -4.6549393394538265, 61.01030975880907 -4.339045696123249 M61.01030975880907 -4.339045696123249 C61.06577604640651 -4.127528702273111, 61.121242334003945 -3.916011708422973, 61.25827566077281 -3.3934442428337963 M61.01030975880907 -4.339045696123249 C61.09038048827323 -4.033701301802737, 61.170451217737394 -3.7283569074822247, 61.25827566077281 -3.3934442428337963 M61.25827566077281 -3.3934442428337963 C61.31011323216343 -3.1272692696175466, 61.36195080355405 -2.861094296401297, 61.44514719707036 -2.433898399259039 M61.25827566077281 -3.3934442428337963 C61.3312717903438 -3.0186245452242018, 61.404267919914794 -2.643804847614607, 61.44514719707036 -2.433898399259039 M61.44514719707036 -2.433898399259039 C61.48577391525002 -2.1188055957105294, 61.52640063342968 -1.80371279216202, 61.570156472475276 -1.4643511450921496 M61.44514719707036 -2.433898399259039 C61.47235102417393 -2.222910888247016, 61.49955485127751 -2.011923377234994, 61.570156472475276 -1.4643511450921496 M61.570156472475276 -1.4643511450921496 C61.59295623092549 -1.1092265035963162, 61.6157559893757 -0.7541018621004828, 61.63278979706049 -0.4887865579677413 M61.570156472475276 -1.4643511450921496 C61.59421755998367 -1.0895802853885879, 61.61827864749207 -0.7148094256850263, 61.63278979706049 -0.4887865579677413 M61.63278979706049 -0.4887865579677413 C61.63278979706049 -0.16928610676943412, 61.63278979706049 0.15021434442887305, 61.63278979706049 0.48878655796773757 M61.63278979706049 -0.4887865579677413 C61.63278979706049 -0.2859592292851285, 61.63278979706049 -0.08313190060251574, 61.63278979706049 0.48878655796773757 M61.63278979706049 0.48878655796773757 C61.61323006830216 0.7934451217076459, 61.59367033954383 1.0981036854475543, 61.570156472475276 1.4643511450921392 M61.63278979706049 0.48878655796773757 C61.614844209797056 0.7683035650130845, 61.596898622533615 1.0478205720584315, 61.570156472475276 1.4643511450921392 M61.570156472475276 1.4643511450921392 C61.53566802487351 1.7318367341771606, 61.50117957727174 1.9993223232621817, 61.44514719707037 2.433898399259028 M61.570156472475276 1.4643511450921392 C61.530893132821895 1.7688698540203782, 61.491629793168514 2.073388562948617, 61.44514719707037 2.433898399259028 M61.44514719707037 2.433898399259028 C61.39873091396117 2.672236202939885, 61.35231463085196 2.910574006620742, 61.25827566077281 3.3934442428337928 M61.44514719707037 2.433898399259028 C61.377772322712644 2.7798541394012, 61.31039744835492 3.125809879543372, 61.25827566077281 3.3934442428337928 M61.25827566077281 3.3934442428337928 C61.16054365093844 3.7661387536532285, 61.062811641104076 4.138833264472664, 61.01030975880907 4.339045696123239 M61.25827566077281 3.3934442428337928 C61.18665155686171 3.6665779931297937, 61.11502745295062 3.939711743425794, 61.01030975880907 4.339045696123239 M61.01030975880907 4.339045696123239 C60.91637894882879 4.621950329941673, 60.822448138848515 4.9048549637601075, 60.70226843625885 5.266817079924938 M61.01030975880907 4.339045696123239 C60.914861812099694 4.626519704046808, 60.81941386539032 4.9139937119703765, 60.70226843625885 5.266817079924938 M60.70226843625885 5.266817079924938 C60.593272265240856 5.53603972963699, 60.484276094222864 5.805262379349041, 60.33541750099114 6.172945982616505 M60.70226843625885 5.266817079924938 C60.572502257964075 5.587342049171401, 60.44273607966931 5.907867018417863, 60.33541750099114 6.172945982616505 M60.33541750099114 6.172945982616505 C60.23008485279014 6.391671480363509, 60.12475220458914 6.610396978110511, 59.91126442218825 7.053708926172734 M60.33541750099114 6.172945982616505 C60.23556605336944 6.380289650081689, 60.13571460574774 6.5876333175468735, 59.91126442218825 7.053708926172734 M59.91126442218825 7.053708926172734 C59.754023517788006 7.3329060743035, 59.59678261338777 7.612103222434266, 59.43155213583153 7.905486666735506 M59.91126442218825 7.053708926172734 C59.74213122971838 7.354022035995878, 59.5729980372485 7.6543351458190205, 59.43155213583153 7.905486666735506 M59.43155213583153 7.905486666735506 C59.27604147516861 8.144392801973156, 59.120530814505685 8.383298937210808, 58.89825188260358 8.724779066863082 M59.43155213583153 7.905486666735506 C59.31289937439333 8.087769171032228, 59.19424661295513 8.270051675328949, 58.89825188260358 8.724779066863082 M58.89825188260358 8.724779066863082 C58.67500952902279 9.02390348286455, 58.45176717544199 9.323027898866018, 58.313555107637455 9.508219478345683 M58.89825188260358 8.724779066863082 C58.759515278891925 8.910673476672088, 58.620778675180276 9.096567886481093, 58.313555107637455 9.508219478345683 M58.313555107637455 9.508219478345683 C58.11821509855271 9.73767696817802, 57.922875089467965 9.967134458010356, 57.679864455398565 10.252588576485076 M58.313555107637455 9.508219478345683 C58.074813370533306 9.788659107537896, 57.836071633429164 10.06909873673011, 57.679864455398565 10.252588576485076 M57.679864455398565 10.252588576485076 C57.4672780205954 10.472101524090238, 57.25469158579223 10.6916144716954, 56.99978389670317 10.954827588990343 M57.679864455398565 10.252588576485076 C57.4248070925491 10.515956244226082, 57.16974972969963 10.779323911967088, 56.99978389670317 10.954827588990343 M56.99978389670317 10.954827588990343 C56.762179614970165 11.170613510995466, 56.52457533323715 11.386399433000589, 56.27610802844379 11.61205086512929 M56.99978389670317 10.954827588990343 C56.83405773878351 11.10533570073913, 56.66833158086384 11.255843812487916, 56.27610802844379 11.61205086512929 M56.27610802844379 11.61205086512929 C56.047172759033145 11.794620650260903, 55.8182374896225 11.977190435392513, 55.51181058999104 12.221557733486337 M56.27610802844379 11.61205086512929 C56.02047392838714 11.81591225721537, 55.76483982833049 12.019773649301447, 55.51181058999104 12.221557733486337 M55.51181058999104 12.221557733486337 C55.340247503373504 12.341232715864413, 55.168684416755966 12.46090769824249, 54.71003224346087 12.780843599600566 M55.51181058999104 12.221557733486337 C55.31486204613919 12.35894051191234, 55.11791350228733 12.496323290338344, 54.71003224346087 12.780843599600566 M54.71003224346087 12.780843599600566 C54.50573732829668 12.904688377743279, 54.3014424131325 13.028533155885992, 53.87406766806005 13.287610237881688 M54.71003224346087 12.780843599600566 C54.47425922409276 12.923770589497572, 54.23848620472465 13.066697579394576, 53.87406766806005 13.287610237881688 M53.87406766806005 13.287610237881688 C53.66697925492156 13.39564813036958, 53.45989084178307 13.50368602285747, 53.007352021542765 13.73977523551189 M53.87406766806005 13.287610237881688 C53.545725598310355 13.458906085356972, 53.21738352856066 13.630201932832255, 53.007352021542765 13.73977523551189 M53.007352021542765 13.73977523551189 C52.80312820310928 13.830179061848064, 52.5989043846758 13.920582888184239, 52.11344682441046 14.13548054952683 M53.007352021542765 13.73977523551189 C52.65876278742248 13.894085348924708, 52.3101735533022 14.048395462337528, 52.11344682441046 14.13548054952683 M52.11344682441046 14.13548054952683 C51.79410171723309 14.253002500961912, 51.47475661005572 14.370524452396996, 51.19602532486022 14.473100141912694 M52.11344682441046 14.13548054952683 C51.853645256498666 14.231089928097738, 51.593843688586865 14.326699306668647, 51.19602532486022 14.473100141912694 M51.19602532486022 14.473100141912694 C50.980060070377185 14.537197495818505, 50.764094815894154 14.601294849724317, 50.25885740462 14.751246661345196 M51.19602532486022 14.473100141912694 C50.99578276226698 14.532531083395709, 50.79554019967373 14.591962024878725, 50.25885740462 14.751246661345196 M50.25885740462 14.751246661345196 C49.957009825821444 14.820141401466433, 49.65516224702288 14.88903614158767, 49.30579408769593 14.968777144113746 M50.25885740462 14.751246661345196 C50.05243917541534 14.79836027515633, 49.846020946210665 14.845473888967467, 49.30579408769593 14.968777144113746 M49.30579408769593 14.968777144113746 C49.071508538287375 15.00665461483055, 48.83722298887883 15.044532085547353, 48.340751715688725 15.124797710804502 M49.30579408769593 14.968777144113746 C48.97065778317156 15.022959382808388, 48.63552147864719 15.07714162150303, 48.340751715688725 15.124797710804502 M48.340751715688725 15.124797710804502 C48.074943096911035 15.150439948576352, 47.80913447813334 15.1760821863482, 47.36769585470587 15.21866723944263 M48.340751715688725 15.124797710804502 C48.012324732699796 15.156480666862208, 47.683897749710866 15.188163622919914, 47.36769585470587 15.21866723944263 M47.36769585470587 15.21866723944263 C47.107147398250774 15.227022521314339, 46.846598941795676 15.235377803186049, 46.390625 15.25 M47.36769585470587 15.21866723944263 C47.06420100362659 15.22839972859985, 46.76070615254731 15.238132217757073, 46.390625 15.25 M46.390625 15.25 C46.390625 15.25, 46.390625 15.25, 46.390625 15.25 M46.390625 15.25 C46.390625 15.25, 46.390625 15.25, 46.390625 15.25 M46.390625 15.25 C13.317036922857554 15.25, -19.756551154284892 15.25, -46.390625 15.25 M46.390625 15.25 C16.128232385229108 15.25, -14.134160229541784 15.25, -46.390625 15.25 M-46.390625 15.25 C-46.72115530026874 15.239400536608581, -47.051685600537475 15.228801073217165, -47.367695854705865 15.21866723944263 M-46.390625 15.25 C-46.677579649897936 15.240797922901116, -46.964534299795865 15.231595845802232, -47.367695854705865 15.21866723944263 M-47.367695854705865 15.21866723944263 C-47.61715886275794 15.194601843079008, -47.866621870810015 15.170536446715385, -48.34075171568872 15.124797710804502 M-47.367695854705865 15.21866723944263 C-47.673886210708325 15.18912942404685, -47.98007656671079 15.159591608651073, -48.34075171568872 15.124797710804502 M-48.34075171568872 15.124797710804502 C-48.65361737580144 15.07421601718691, -48.96648303591415 15.023634323569317, -49.30579408769593 14.968777144113746 M-48.34075171568872 15.124797710804502 C-48.6053738169777 15.082015661643144, -48.86999591826669 15.039233612481786, -49.30579408769593 14.968777144113746 M-49.30579408769593 14.968777144113746 C-49.63830071834474 14.892884675476699, -49.970807348993546 14.816992206839654, -50.25885740461998 14.7512466613452 M-49.30579408769593 14.968777144113746 C-49.61853399247767 14.897396301665916, -49.93127389725941 14.826015459218087, -50.25885740461998 14.7512466613452 M-50.25885740461998 14.7512466613452 C-50.56128072997455 14.661489005832392, -50.86370405532912 14.571731350319586, -51.19602532486021 14.4731001419127 M-50.25885740461998 14.7512466613452 C-50.53602648625588 14.668984332805865, -50.813195567891775 14.586722004266528, -51.19602532486021 14.4731001419127 M-51.19602532486021 14.4731001419127 C-51.485008019872936 14.366751838821267, -51.77399071488567 14.260403535729834, -52.11344682441046 14.135480549526832 M-51.19602532486021 14.4731001419127 C-51.45777663909225 14.376773238672683, -51.7195279533243 14.280446335432666, -52.11344682441046 14.135480549526832 M-52.11344682441046 14.135480549526832 C-52.341799522707426 14.034395583832886, -52.57015222100439 13.933310618138938, -53.00735202154276 13.739775235511894 M-52.11344682441046 14.135480549526832 C-52.373111521849694 14.020534690650056, -52.63277621928893 13.90558883177328, -53.00735202154276 13.739775235511894 M-53.00735202154276 13.739775235511894 C-53.23716003190833 13.619884543703233, -53.4669680422739 13.49999385189457, -53.87406766806005 13.287610237881692 M-53.00735202154276 13.739775235511894 C-53.29936567001539 13.587431902147392, -53.591379318488016 13.435088568782891, -53.87406766806005 13.287610237881692 M-53.87406766806005 13.287610237881692 C-54.05140557720531 13.180106955204606, -54.22874348635056 13.072603672527519, -54.71003224346086 12.780843599600576 M-53.87406766806005 13.287610237881692 C-54.169124308320704 13.1087451686104, -54.46418094858136 12.929880099339107, -54.71003224346086 12.780843599600576 M-54.71003224346086 12.780843599600576 C-55.004162833513284 12.575670832688033, -55.29829342356571 12.37049806577549, -55.51181058999104 12.22155773348634 M-54.71003224346086 12.780843599600576 C-54.976405664423936 12.595033032256278, -55.24277908538701 12.409222464911982, -55.51181058999104 12.22155773348634 M-55.51181058999104 12.22155773348634 C-55.730571117986734 12.047102033871914, -55.949331645982426 11.872646334257489, -56.27610802844377 11.612050865129303 M-55.51181058999104 12.22155773348634 C-55.70773513063908 12.065313126090524, -55.903659671287116 11.909068518694706, -56.27610802844377 11.612050865129303 M-56.27610802844377 11.612050865129303 C-56.5557717409627 11.35806768091597, -56.835435453481615 11.10408449670264, -56.999783896703164 10.954827588990353 M-56.27610802844377 11.612050865129303 C-56.511633527284715 11.39815283874517, -56.747159026125665 11.18425481236104, -56.999783896703164 10.954827588990353 M-56.999783896703164 10.954827588990353 C-57.194538461029424 10.75372751167639, -57.389293025355684 10.552627434362426, -57.679864455398565 10.252588576485081 M-56.999783896703164 10.954827588990353 C-57.15889128965088 10.790536142811932, -57.317998682598606 10.626244696633513, -57.679864455398565 10.252588576485081 M-57.679864455398565 10.252588576485081 C-57.84400586491032 10.059778736961778, -58.008147274422086 9.866968897438475, -58.313555107637455 9.508219478345689 M-57.679864455398565 10.252588576485081 C-57.901552372377395 9.992181334801918, -58.12324028935623 9.731774093118757, -58.313555107637455 9.508219478345689 M-58.313555107637455 9.508219478345689 C-58.53218220145005 9.215279089974796, -58.75080929526264 8.922338701603904, -58.898251882603574 8.724779066863093 M-58.313555107637455 9.508219478345689 C-58.50614268800349 9.250169665744705, -58.69873026836953 8.992119853143723, -58.898251882603574 8.724779066863093 M-58.898251882603574 8.724779066863093 C-59.04557404263311 8.498452667518615, -59.19289620266265 8.272126268174135, -59.431552135831524 7.9054866667355155 M-58.898251882603574 8.724779066863093 C-59.01721146978183 8.542025195835405, -59.13617105696007 8.359271324807718, -59.431552135831524 7.9054866667355155 M-59.431552135831524 7.9054866667355155 C-59.53206643086582 7.727013357726073, -59.63258072590011 7.548540048716632, -59.91126442218825 7.05370892617274 M-59.431552135831524 7.9054866667355155 C-59.60141309764815 7.603881328742584, -59.77127405946477 7.302275990749651, -59.91126442218825 7.05370892617274 M-59.91126442218825 7.05370892617274 C-60.0231790416472 6.821315824276998, -60.13509366110613 6.588922722381256, -60.33541750099114 6.172945982616511 M-59.91126442218825 7.05370892617274 C-60.07001412937484 6.724061762500193, -60.228763836561434 6.394414598827645, -60.33541750099114 6.172945982616511 M-60.33541750099114 6.172945982616511 C-60.45354545340561 5.881167656304187, -60.57167340582007 5.589389329991862, -60.70226843625884 5.26681707992495 M-60.33541750099114 6.172945982616511 C-60.43162953904677 5.935300388485898, -60.52784157710239 5.6976547943552855, -60.70226843625884 5.26681707992495 M-60.70226843625884 5.26681707992495 C-60.78785058940022 5.009057270327463, -60.873432742541596 4.751297460729975, -61.01030975880907 4.339045696123245 M-60.70226843625884 5.26681707992495 C-60.81039298505553 4.941163166256661, -60.91851753385222 4.615509252588373, -61.01030975880907 4.339045696123245 M-61.01030975880907 4.339045696123245 C-61.1057860559212 3.9749531955457775, -61.20126235303333 3.61086069496831, -61.25827566077281 3.393444242833798 M-61.01030975880907 4.339045696123245 C-61.067757258870955 4.119973480483271, -61.12520475893283 3.9009012648432972, -61.25827566077281 3.393444242833798 M-61.25827566077281 3.393444242833798 C-61.3210562212724 3.0710793333445583, -61.38383678177199 2.7487144238553185, -61.44514719707036 2.4338983992590406 M-61.25827566077281 3.393444242833798 C-61.331794983980004 3.0159380564793064, -61.405314307187204 2.6384318701248146, -61.44514719707036 2.4338983992590406 M-61.44514719707036 2.4338983992590406 C-61.477890281936375 2.179949498891708, -61.51063336680239 1.9260005985243758, -61.570156472475276 1.4643511450921582 M-61.44514719707036 2.4338983992590406 C-61.486577400613726 2.1125739218957946, -61.52800760415709 1.7912494445325486, -61.570156472475276 1.4643511450921582 M-61.570156472475276 1.4643511450921582 C-61.59133940101415 1.1344099345469836, -61.61252232955303 0.8044687240018088, -61.63278979706049 0.4887865579677432 M-61.570156472475276 1.4643511450921582 C-61.584402899413384 1.2424515460223065, -61.598649326351484 1.0205519469524544, -61.63278979706049 0.4887865579677432 M-61.63278979706049 0.4887865579677432 C-61.63278979706049 0.1381809902809965, -61.63278979706049 -0.21242457740575016, -61.63278979706049 -0.4887865579677358 M-61.63278979706049 0.4887865579677432 C-61.63278979706049 0.15685806467456592, -61.63278979706049 -0.17507042861861133, -61.63278979706049 -0.4887865579677358 M-61.63278979706049 -0.4887865579677358 C-61.61462986178898 -0.7716422082574752, -61.596469926517464 -1.0544978585472147, -61.570156472475276 -1.4643511450921374 M-61.63278979706049 -0.4887865579677358 C-61.61759052093704 -0.725527552225297, -61.602391244813596 -0.9622685464828582, -61.570156472475276 -1.4643511450921374 M-61.570156472475276 -1.4643511450921374 C-61.52566085600902 -1.8094503597511093, -61.48116523954277 -2.1545495744100815, -61.44514719707037 -2.4338983992590335 M-61.570156472475276 -1.4643511450921374 C-61.52831494876404 -1.7888657404530608, -61.48647342505281 -2.113380335813984, -61.44514719707037 -2.4338983992590335 M-61.44514719707037 -2.4338983992590335 C-61.39046171398547 -2.7146967971190463, -61.33577623090057 -2.995495194979059, -61.25827566077281 -3.393444242833791 M-61.44514719707037 -2.4338983992590335 C-61.37662112721371 -2.7857652849829853, -61.30809505735705 -3.1376321707069375, -61.25827566077281 -3.393444242833791 M-61.25827566077281 -3.393444242833791 C-61.1851043242729 -3.672478261565807, -61.11193298777298 -3.9515122802978233, -61.01030975880908 -4.339045696123237 M-61.25827566077281 -3.393444242833791 C-61.1950520253125 -3.6345433661408983, -61.13182838985219 -3.8756424894480053, -61.01030975880908 -4.339045696123237 M-61.01030975880908 -4.339045696123237 C-60.94546398088723 -4.534350847452207, -60.88061820296539 -4.729655998781176, -60.70226843625885 -5.266817079924931 M-61.01030975880908 -4.339045696123237 C-60.94865959733478 -4.524726159864533, -60.88700943586048 -4.710406623605829, -60.70226843625885 -5.266817079924931 M-60.70226843625885 -5.266817079924931 C-60.572754678515395 -5.5867185655294245, -60.44324092077194 -5.906620051133918, -60.33541750099114 -6.172945982616503 M-60.70226843625885 -5.266817079924931 C-60.62138369406761 -5.466603956937403, -60.540498951876366 -5.666390833949875, -60.33541750099114 -6.172945982616503 M-60.33541750099114 -6.172945982616503 C-60.25031639526409 -6.349660249530684, -60.165215289537045 -6.526374516444864, -59.91126442218825 -7.053708926172733 M-60.33541750099114 -6.172945982616503 C-60.19651686399121 -6.461376127344401, -60.057616226991264 -6.7498062720723, -59.91126442218825 -7.053708926172733 M-59.91126442218825 -7.053708926172733 C-59.76915112891269 -7.306045468914897, -59.627037835637125 -7.558382011657061, -59.431552135831524 -7.90548666673551 M-59.91126442218825 -7.053708926172733 C-59.79086669374951 -7.267487284607745, -59.670468965310754 -7.481265643042758, -59.431552135831524 -7.90548666673551 M-59.431552135831524 -7.90548666673551 C-59.28929759216888 -8.12402784649491, -59.147043048506234 -8.34256902625431, -58.898251882603574 -8.724779066863087 M-59.431552135831524 -7.90548666673551 C-59.24356367203038 -8.194287429104737, -59.05557520822924 -8.483088191473964, -58.898251882603574 -8.724779066863087 M-58.898251882603574 -8.724779066863087 C-58.744340460490434 -8.931006350875684, -58.5904290383773 -9.137233634888283, -58.313555107637455 -9.508219478345683 M-58.898251882603574 -8.724779066863087 C-58.687467711071676 -9.00721065388277, -58.47668353953977 -9.289642240902452, -58.313555107637455 -9.508219478345683 M-58.313555107637455 -9.508219478345683 C-58.1253830008745 -9.729257142245652, -57.937210894111544 -9.950294806145623, -57.67986445539857 -10.252588576485076 M-58.313555107637455 -9.508219478345683 C-58.08405222429707 -9.777806624201313, -57.85454934095669 -10.04739377005694, -57.67986445539857 -10.252588576485076 M-57.67986445539857 -10.252588576485076 C-57.542548127239584 -10.394378959189435, -57.4052317990806 -10.536169341893794, -56.99978389670318 -10.954827588990337 M-57.67986445539857 -10.252588576485076 C-57.41682183393687 -10.524201679345135, -57.15377921247518 -10.795814782205193, -56.99978389670318 -10.954827588990337 M-56.99978389670318 -10.954827588990337 C-56.741543746299406 -11.18935446092708, -56.48330359589564 -11.42388133286382, -56.27610802844379 -11.612050865129289 M-56.99978389670318 -10.954827588990337 C-56.74066775864165 -11.19015000974049, -56.48155162058013 -11.425472430490643, -56.27610802844379 -11.612050865129289 M-56.27610802844379 -11.612050865129289 C-56.00990014822959 -11.824344565510906, -55.743692268015394 -12.036638265892524, -55.51181058999105 -12.221557733486335 M-56.27610802844379 -11.612050865129289 C-56.00149258397755 -11.831049374267227, -55.726877139511316 -12.050047883405165, -55.51181058999105 -12.221557733486335 M-55.51181058999105 -12.221557733486335 C-55.21411924655626 -12.429214327815888, -54.916427903121466 -12.63687092214544, -54.71003224346087 -12.780843599600564 M-55.51181058999105 -12.221557733486335 C-55.194064453580545 -12.44320368323775, -54.87631831717004 -12.664849632989164, -54.71003224346087 -12.780843599600564 M-54.71003224346087 -12.780843599600564 C-54.408397956636 -12.963696076873628, -54.10676366981112 -13.146548554146692, -53.87406766806005 -13.287610237881687 M-54.71003224346087 -12.780843599600564 C-54.4777761100343 -12.921638632572293, -54.24551997660773 -13.062433665544022, -53.87406766806005 -13.287610237881687 M-53.87406766806005 -13.287610237881687 C-53.65077377599712 -13.40410251834435, -53.427479883934204 -13.520594798807016, -53.007352021542765 -13.73977523551189 M-53.87406766806005 -13.287610237881687 C-53.69913093590195 -13.378874618996244, -53.524194203743846 -13.470139000110803, -53.007352021542765 -13.73977523551189 M-53.007352021542765 -13.73977523551189 C-52.699164552411425 -13.87620068603988, -52.390977083280085 -14.012626136567869, -52.11344682441046 -14.135480549526829 M-53.007352021542765 -13.73977523551189 C-52.790379270870815 -13.835822635966395, -52.57340652019887 -13.931870036420896, -52.11344682441046 -14.135480549526829 M-52.11344682441046 -14.135480549526829 C-51.910945097128014 -14.210003057072218, -51.70844336984557 -14.284525564617605, -51.19602532486023 -14.473100141912694 M-52.11344682441046 -14.135480549526829 C-51.75015843002815 -14.269174036860624, -51.38687003564584 -14.40286752419442, -51.19602532486023 -14.473100141912694 M-51.19602532486023 -14.473100141912694 C-51.00168760313221 -14.530778557622051, -50.80734988140419 -14.588456973331411, -50.25885740462 -14.751246661345194 M-51.19602532486023 -14.473100141912694 C-50.8853090313896 -14.56531910683167, -50.57459273791898 -14.657538071750643, -50.25885740462 -14.751246661345194 M-50.25885740462 -14.751246661345194 C-49.941984239671655 -14.823570893454008, -49.6251110747233 -14.895895125562824, -49.305794087695936 -14.968777144113744 M-50.25885740462 -14.751246661345194 C-50.00756181926089 -14.808603238846462, -49.75626623390179 -14.865959816347733, -49.305794087695936 -14.968777144113744 M-49.305794087695936 -14.968777144113744 C-49.014152652075765 -15.015927469711702, -48.722511216455594 -15.06307779530966, -48.340751715688725 -15.124797710804502 M-49.305794087695936 -14.968777144113744 C-49.045283975996995 -15.01089439868714, -48.78477386429805 -15.053011653260537, -48.340751715688725 -15.124797710804502 M-48.340751715688725 -15.124797710804502 C-48.01946700898233 -15.155791660059077, -47.69818230227593 -15.18678560931365, -47.36769585470587 -15.21866723944263 M-48.340751715688725 -15.124797710804502 C-48.12758883541323 -15.14536127749881, -47.91442595513774 -15.165924844193114, -47.36769585470587 -15.21866723944263 M-47.36769585470587 -15.21866723944263 C-47.09957309827864 -15.227265414371965, -46.83145034185141 -15.235863589301301, -46.39062500000001 -15.25 M-47.36769585470587 -15.21866723944263 C-47.01939311533434 -15.22983663036412, -46.6710903759628 -15.24100602128561, -46.39062500000001 -15.25 M-46.39062500000001 -15.25 C-46.39062500000001 -15.25, -46.390625 -15.25, -46.390625 -15.25 M-46.39062500000001 -15.25 C-46.39062500000001 -15.25, -46.39062500000001 -15.25, -46.390625 -15.25" stroke="#111" stroke-width="3" fill="none" stroke-dasharray="0 0" style="fill:#e9eefc !important;stroke:#111 !important;stroke-width:3px !important"/></g><g class="label" style="" transform="translate(-53.828125, -11.25)"><rect/><foreignObject width="107.65625" height="22.5"><div xmlns="http://www.w3.org/1999/xhtml" style="display: table-cell; white-space: nowrap; line-height: 1.5; max-width: 200px; text-align: center;"><span class="nodeLabel"><p>Phishing attacks</p></span></div></foreignObject></g></g><g class="node default" id="my-svg-flowchart-A1-2" data-look="classic" transform="translate(1609.7109375, 151.5)"><rect class="basic label-container" style="fill:#ececec !important;stroke:#111 !important;stroke-width:2px !important" x="-57.1875" y="-30.5" width="114.375" height="61"/><g class="label" style="" transform="translate(-41.1875, -22.5)"><rect/><foreignObject width="82.375" height="45"><div xmlns="http://www.w3.org/1999/xhtml" style="display: table-cell; white-space: nowrap; line-height: 1.5; max-width: 200px; text-align: center;"><span class="nodeLabel"><p>By technical<br />method</p></span></div></foreignObject></g></g><g class="node default" id="my-svg-flowchart-A2-4" data-look="classic" transform="translate(959.63671875, 151.5)"><rect class="basic label-container" style="fill:#ececec !important;stroke:#111 !important;stroke-width:2px !important" x="-77.6171875" y="-30.5" width="155.234375" height="61"/><g class="label" style="" transform="translate(-61.6171875, -22.5)"><rect/><foreignObject width="123.234375" height="45"><div xmlns="http://www.w3.org/1999/xhtml" style="display: table-cell; white-space: nowrap; line-height: 1.5; max-width: 200px; text-align: center;"><span class="nodeLabel"><p>By communication<br />channel</p></span></div></foreignObject></g></g><g class="node default" id="my-svg-flowchart-A3-6" data-look="classic" transform="translate(328.44140625, 151.5)"><rect class="basic label-container" style="fill:#ececec !important;stroke:#111 !important;stroke-width:2px !important" x="-56.8671875" y="-30.5" width="113.734375" height="61"/><g class="label" style="" transform="translate(-40.8671875, -22.5)"><rect/><foreignObject width="81.734375" height="45"><div xmlns="http://www.w3.org/1999/xhtml" style="display: table-cell; white-space: nowrap; line-height: 1.5; max-width: 200px; text-align: center;"><span class="nodeLabel"><p>By targeting<br />strategy</p></span></div></foreignObject></g></g><g class="node default" id="my-svg-flowchart-M1-9" data-look="classic" transform="translate(1399.4140625, 267.5)"><rect class="basic label-container" style="" x="-64.7265625" y="-19.25" width="129.453125" height="38.5"/><g class="label" style="" transform="translate(-48.7265625, -11.25)"><rect/><foreignObject width="97.453125" height="22.5"><div xmlns="http://www.w3.org/1999/xhtml" style="display: table-cell; white-space: nowrap; line-height: 1.5; max-width: 200px; text-align: center;"><span class="nodeLabel"><p>Clone phishing</p></span></div></foreignObject></g></g><g class="node default" id="my-svg-flowchart-M2-11" data-look="classic" transform="translate(1546.15625, 267.5)"><rect class="basic label-container" style="" x="-47.015625" y="-19.25" width="94.03125" height="38.5"/><g class="label" style="" transform="translate(-31.015625, -11.25)"><rect/><foreignObject width="62.03125" height="22.5"><div xmlns="http://www.w3.org/1999/xhtml" style="display: table-cell; white-space: nowrap; line-height: 1.5; max-width: 200px; text-align: center;"><span class="nodeLabel"><p>Pharming</p></span></div></foreignObject></g></g><g class="node default" id="my-svg-flowchart-M3-13" data-look="classic" transform="translate(1673.265625, 267.5)"><rect class="basic label-container" style="" x="-45.09375" y="-19.25" width="90.1875" height="38.5"/><g class="label" style="" transform="translate(-29.09375, -11.25)"><rect/><foreignObject width="58.1875" height="22.5"><div xmlns="http://www.w3.org/1999/xhtml" style="display: table-cell; white-space: nowrap; line-height: 1.5; max-width: 200px; text-align: center;"><span class="nodeLabel"><p>Evil twin</p></span></div></foreignObject></g></g><g class="node default" id="my-svg-flowchart-M4-15" data-look="classic" transform="translate(1831.40625, 267.5)"><rect class="basic label-container" style="" x="-78.046875" y="-19.25" width="156.09375" height="38.5"/><g class="label" style="" transform="translate(-62.046875, -11.25)"><rect/><foreignObject width="124.09375" height="22.5"><div xmlns="http://www.w3.org/1999/xhtml" style="display: table-cell; white-space: nowrap; line-height: 1.5; max-width: 200px; text-align: center;"><span class="nodeLabel"><p>Man-in-the-middle</p></span></div></foreignObject></g></g><g class="node default" id="my-svg-flowchart-C1-18" data-look="classic" transform="translate(742.4609375, 267.5)"><rect class="basic label-container" style="" x="-34.5390625" y="-19.25" width="69.078125" height="38.5"/><g class="label" style="" transform="translate(-18.5390625, -11.25)"><rect/><foreignObject width="37.078125" height="22.5"><div xmlns="http://www.w3.org/1999/xhtml" style="display: table-cell; white-space: nowrap; line-height: 1.5; max-width: 200px; text-align: center;"><span class="nodeLabel"><p>Email</p></span></div></foreignObject></g></g><g class="node default" id="my-svg-flowchart-C2-20" data-look="classic" transform="translate(876.953125, 267.5)"><rect class="basic label-container" style="" x="-64.953125" y="-19.25" width="129.90625" height="38.5"/><g class="label" style="" transform="translate(-48.953125, -11.25)"><rect/><foreignObject width="97.90625" height="22.5"><div xmlns="http://www.w3.org/1999/xhtml" style="display: table-cell; white-space: nowrap; line-height: 1.5; max-width: 200px; text-align: center;"><span class="nodeLabel"><p>Vishing (voice)</p></span></div></foreignObject></g></g><g class="node default" id="my-svg-flowchart-C3-22" data-look="classic" transform="translate(1042.3203125, 267.5)"><rect class="basic label-container" style="" x="-65.4140625" y="-19.25" width="130.828125" height="38.5"/><g class="label" style="" transform="translate(-49.4140625, -11.25)"><rect/><foreignObject width="98.828125" height="22.5"><div xmlns="http://www.w3.org/1999/xhtml" style="display: table-cell; white-space: nowrap; line-height: 1.5; max-width: 200px; text-align: center;"><span class="nodeLabel"><p>Smishing (SMS)</p></span></div></foreignObject></g></g><g class="node default" id="my-svg-flowchart-C4-24" data-look="classic" transform="translate(1201.2109375, 267.5)"><rect class="basic label-container" style="" x="-58.4765625" y="-19.25" width="116.953125" height="38.5"/><g class="label" style="" transform="translate(-42.4765625, -11.25)"><rect/><foreignObject width="84.953125" height="22.5"><div xmlns="http://www.w3.org/1999/xhtml" style="display: table-cell; white-space: nowrap; line-height: 1.5; max-width: 200px; text-align: center;"><span class="nodeLabel"><p>Social media</p></span></div></foreignObject></g></g><g class="node default" id="my-svg-flowchart-T1-27" data-look="classic" transform="translate(96.6484375, 267.5)"><rect class="basic label-container" style="" x="-61.1484375" y="-19.25" width="122.296875" height="38.5"/><g class="label" style="" transform="translate(-45.1484375, -11.25)"><rect/><foreignObject width="90.296875" height="22.5"><div xmlns="http://www.w3.org/1999/xhtml" style="display: table-cell; white-space: nowrap; line-height: 1.5; max-width: 200px; text-align: center;"><span class="nodeLabel"><p>Mass phishing</p></span></div></foreignObject></g></g><g class="node default" id="my-svg-flowchart-T2-29" data-look="classic" transform="translate(257.34375, 267.5)"><rect class="basic label-container" style="" x="-64.546875" y="-19.25" width="129.09375" height="38.5"/><g class="label" style="" transform="translate(-48.546875, -11.25)"><rect/><foreignObject width="97.09375" height="22.5"><div xmlns="http://www.w3.org/1999/xhtml" style="display: table-cell; white-space: nowrap; line-height: 1.5; max-width: 200px; text-align: center;"><span class="nodeLabel"><p>Spear phishing</p></span></div></foreignObject></g></g><g class="node default" id="my-svg-flowchart-T3-31" data-look="classic" transform="translate(399.5390625, 267.5)"><rect class="basic label-container" style="" x="-42.6484375" y="-19.25" width="85.296875" height="38.5"/><g class="label" style="" transform="translate(-26.6484375, -11.25)"><rect/><foreignObject width="53.296875" height="22.5"><div xmlns="http://www.w3.org/1999/xhtml" style="display: table-cell; white-space: nowrap; line-height: 1.5; max-width: 200px; text-align: center;"><span class="nodeLabel"><p>Whaling</p></span></div></foreignObject></g></g><g class="node default" id="my-svg-flowchart-T4-33" data-look="classic" transform="translate(555.0546875, 267.5)"><rect class="basic label-container" style="" x="-77.8671875" y="-30.5" width="155.734375" height="61"/><g class="label" style="" transform="translate(-61.8671875, -22.5)"><rect/><foreignObject width="123.734375" height="45"><div xmlns="http://www.w3.org/1999/xhtml" style="display: table-cell; white-space: nowrap; line-height: 1.5; max-width: 200px; text-align: center;"><span class="nodeLabel"><p>Business Email<br />Compromise (BEC)</p></span></div></foreignObject></g></g></g></g></g><defs><filter id="my-svg-drop-shadow" height="130%" width="130%"><feDropShadow dx="4" dy="4" stdDeviation="0" flood-opacity="0.06" flood-color="#000000"/></filter></defs><defs><filter id="my-svg-drop-shadow-small" height="150%" width="150%"><feDropShadow dx="2" dy="2" stdDeviation="0" flood-opacity="0.06" flood-color="#000000"/></filter></defs><linearGradient id="my-svg-gradient" gradientUnits="objectBoundingBox" x1="0%" y1="0%" x2="100%" y2="0%"><stop offset="0%" stop-color="hsl(0, 0%, 83.3333333333%)" stop-opacity="1"/><stop offset="100%" stop-color="hsl(0, 0%, 88.9215686275%)" stop-opacity="1"/></linearGradient></svg>